<?xml version="1.0" encoding="UTF-8"?>
<svg id="Camada_1" xmlns="http://www.w3.org/2000/svg" viewBox="0 0 108.7 106.09">
  <defs>
    <style>
      .cls-1, .cls-2 {
        fill: #fff;
      }

      .cls-2 {
        fill-rule: evenodd;
      }
    </style>
  </defs>
  <g>
    <path class="cls-1" d="M90.78,40.55c-3.61,1.65-6.02.99-8.5-2.2-3-3.87-5.87-7.86-9.13-11.5-5.47-6.1-12.5-9.47-20.62-10.39-3.5-.4-7.04-.41-10.56-.61-.33-.02-.65-.15-.98-.24.11-.4.09-.95.35-1.18.43-.38,1.02-.62,1.57-.83,7.18-2.76,14.56-3.13,22.04-1.66,3.25.64,6.46,1.53,9.68,2.31-1.71-2.59-2.21-5.44-.8-8.45.94-2.01,2.54-3.29,4.61-3.98,4.68-1.57,9.11.79,10.34,5.48,1.29,4.88-1.68,8.88-7.55,10.13,1.05.92,2.15,1.77,3.11,2.75,2.35,2.41,4.71,4.81,6.92,7.35,1.37,1.58,2.37,3.46,2.66,5.58.42,3.09-.7,5.58-3.19,7.46,0,0,.04-.03.04-.03Z"/>
    <path class="cls-1" d="M66.05,89.84c-1.65-3.61-.99-6.02,2.2-8.5,3.87-3,7.86-5.87,11.5-9.13,6.1-5.47,9.47-12.5,10.39-20.62.4-3.5.41-7.04.61-10.56.02-.33.15-.65.24-.98.4.11.95.09,1.18.35.38.43.62,1.02.83,1.57,2.76,7.18,3.13,14.56,1.66,22.04-.64,3.25-1.53,6.46-2.31,9.68,2.59-1.71,5.44-2.21,8.45-.8,2.01.94,3.29,2.54,3.98,4.61,1.57,4.68-.79,9.11-5.48,10.34-4.88,1.29-8.88-1.68-10.13-7.55-.92,1.05-1.77,2.15-2.75,3.11-2.41,2.35-4.81,4.71-7.35,6.92-1.58,1.37-3.46,2.37-5.58,2.66-3.09.42-5.58-.7-7.46-3.19,0,0,.03.04.03.04Z"/>
    <path class="cls-1" d="M16.44,64.56c3.61-1.65,6.02-.99,8.5,2.2,3,3.87,5.87,7.86,9.13,11.5,5.47,6.1,12.5,9.47,20.62,10.39,3.5.4,7.04.41,10.56.61.33.02.65.15.98.24-.11.4-.09.95-.35,1.18-.43.38-1.02.62-1.57.83-7.18,2.76-14.56,3.13-22.04,1.66-3.25-.64-6.46-1.53-9.68-2.31,1.71,2.59,2.21,5.44.8,8.45-.94,2.01-2.54,3.29-4.61,3.98-4.68,1.57-9.11-.79-10.34-5.48-1.29-4.88,1.68-8.88,7.55-10.13-1.05-.92-2.15-1.77-3.11-2.75-2.35-2.41-4.71-4.81-6.92-7.35-1.37-1.58-2.37-3.46-2.66-5.58-.42-3.09.7-5.58,3.19-7.46,0,0-.04.03-.04.03Z"/>
    <path class="cls-1" d="M40.81,15.26c1.65,3.61.99,6.02-2.2,8.5-3.87,3-7.86,5.87-11.5,9.13-6.1,5.47-9.47,12.5-10.39,20.62-.4,3.5-.41,7.04-.61,10.56-.02.33-.15.65-.24.98-.4-.11-.95-.09-1.18-.35-.38-.43-.62-1.02-.83-1.57-2.76-7.18-3.13-14.56-1.66-22.04.64-3.25,1.53-6.46,2.31-9.68-2.59,1.71-5.44,2.21-8.45.8-2.01-.94-3.29-2.54-3.98-4.61-1.57-4.68.79-9.11,5.48-10.34,4.88-1.29,8.88,1.68,10.13,7.55.92-1.05,1.77-2.15,2.75-3.11,2.41-2.35,4.81-4.71,7.35-6.92,1.58-1.37,3.46-2.37,5.58-2.66,3.09-.42,5.58.7,7.46,3.19,0,0-.03-.04-.03-.04Z"/>
  </g>
  <path class="cls-2" d="M68.33,59.2l6.42,12.27.72-36.84-6.9,11.72-8.84-.17.18-9.17,11.15-6.56-35.63-.7,11.97,7.01-.18,9.17-8.97-.18-6.16-11.98-.72,36.84,6.63-12.01,8.97.18-.18,9.31-12.23,6.54,35.63.7-10.88-6.99.18-9.31,8.84.17ZM56.03,55.15l-.33,16.8-5.44-.11.33-16.79-16.05-.32.1-5.22,16.05.32.33-16.65,5.44.11-.33,16.65,16.05.32-.1,5.22-16.05-.32Z"/>
</svg>